<svg width="149" height="115" viewBox="0 0 149 115" fill="none" xmlns="http://www.w3.org/2000/svg">
<path d="M101.471 13.5294H87.9412V20.2941H101.471V13.5294Z" fill="#FF4848"/>
<path d="M115 20.2941H101.471V27.0588H115V20.2941Z" fill="#FF4848"/>
<path d="M128.529 27.0588H115V33.8235H128.529V27.0588Z" fill="#FF4848"/>
<path d="M108.235 108.235H27.0588V115H108.235V108.235Z" fill="#FF4848"/>
<path d="M6.76471 54.1176H0V67.6471H6.76471V54.1176Z" fill="#FF4848"/>
<path d="M87.9412 6.76471H81.1765V13.5294H87.9412V6.76471Z" fill="#FF4848"/>
<path d="M94.706 27.0588C87.9412 27.0588 81.1765 27.0588 74.4118 27.0588V20.2941H67.6471V27.0588H20.2942V33.8235C45.0981 33.8235 69.902 33.8235 94.706 33.8235V27.0588Z" fill="#FF4848"/>
<path d="M128.529 101.471H108.235V108.235H128.529V101.471Z" fill="#FF4848"/>
<path d="M87.9411 94.7059V87.9412C63.1371 87.9412 38.3332 87.9412 13.5293 87.9412V94.7059H20.294C20.294 99.2157 20.294 103.725 20.294 108.235H27.0587C27.0587 103.725 27.0587 99.2157 27.0587 94.7059C47.3528 94.7059 67.6469 94.7059 87.9411 94.7059Z" fill="#FF4848"/>
<path d="M142.059 33.8235H128.529V40.5882H142.059V94.7059H128.529V101.471H148.824C148.824 78.9216 148.824 56.3726 148.824 33.8235H142.059Z" fill="#FF4848"/>
<path d="M74.4117 47.3529C56.3725 47.3529 38.3333 47.3529 20.2941 47.3529V33.8235H13.5294V47.3529H6.76465V54.1177C29.3137 54.1177 51.8627 54.1177 74.4117 54.1177V47.3529Z" fill="#FF4848"/>
<path d="M74.4117 74.4118V67.6471C51.8627 67.6471 29.3137 67.6471 6.76465 67.6471C6.76465 74.4118 6.76465 81.1765 6.76465 87.9412H13.5294V74.4118H74.4117Z" fill="#FF4848"/>
<path d="M81.1764 6.76471V0C74.4117 0 67.647 0 60.8823 0V20.2941H67.647V6.76471H81.1764Z" fill="#FF4848"/>
</svg>
