<svg width="149" height="115" viewBox="0 0 149 115" fill="none" xmlns="http://www.w3.org/2000/svg">
<path fill-rule="evenodd" clip-rule="evenodd" d="M139.519 35.9375V93.4375H120.916V100.625H148.82V95.8333V32.3437V28.75H130.218V35.9375H139.519ZM93.0125 100.625V107.812H120.916V100.625H93.0125ZM37.205 107.812V115H93.0125V107.812H37.205ZM18.6025 43.125V50.3125H46.5063V43.125H18.6025ZM27.9038 100.625V107.812H37.205V100.625H27.9038ZM111.615 21.5625V28.75H130.218V21.5625H111.615ZM37.205 14.375V21.5625H46.5063V14.375H37.205ZM46.5063 7.1875V14.375H55.8075V7.1875H46.5063ZM93.0125 7.1875V14.375H102.314V7.1875H93.0125ZM102.314 14.375V21.5625H111.615V14.375H102.314ZM55.8075 0V7.1875H93.0125V0H55.8075ZM27.9038 86.25V93.4375H55.8075V86.25H27.9038ZM18.6025 64.6875V71.875H46.5063V64.6875H18.6025ZM18.6025 21.5625V28.75H93.0125V21.5625H18.6025ZM18.6025 86.25V100.625H27.9038V86.25H18.6025ZM9.30125 64.6875V86.25H18.6025V64.6875H9.30125ZM0 50.3125V64.6875H9.30125V50.3125H0ZM9.30125 28.75V50.3125H18.6025V28.75H9.30125Z" fill="white"/>
</svg>
