<svg width="149" height="115" viewBox="0 0 149 115" fill="none" xmlns="http://www.w3.org/2000/svg">
<path d="M27.0582 7.1875H6.76453V14.375H27.0582V7.1875Z" fill="#3EDBF0"/>
<path d="M67.6454 28.75H101.468V21.5625H74.41V14.375H67.6454V21.5625H47.3518V28.75H67.6454Z" fill="#3EDBF0"/>
<path d="M114.997 28.75H128.526V21.5625H121.762V14.375H114.997C114.997 19.1667 114.997 23.9583 114.997 28.75Z" fill="#3EDBF0"/>
<path d="M81.1746 7.1875H74.41V14.375H81.1746V7.1875Z" fill="#3EDBF0"/>
<path d="M114.997 14.375V7.1875H108.233V14.375H114.997Z" fill="#3EDBF0"/>
<path d="M108.233 0H81.1746V7.1875H108.233V0Z" fill="#3EDBF0"/>
<path d="M6.76453 86.25H27.0582V79.0625H6.76453V86.25Z" fill="#3EDBF0"/>
<path d="M0 14.375V28.75H6.76455V14.375H0Z" fill="#3EDBF0"/>
<path d="M67.6455 115H108.233V107.812H67.6455V115Z" fill="#3EDBF0"/>
<path d="M0 64.6875V79.0625H6.76455V64.6875H0Z" fill="#3EDBF0"/>
<path d="M74.41 43.125H47.3518V50.3125H74.41V43.125Z" fill="#3EDBF0"/>
<path d="M81.1745 93.4375V86.25C72.1551 86.25 63.1357 86.25 54.1163 86.25C54.1163 91.0417 54.1163 95.8333 54.1163 100.625H60.8809V93.4375H81.1745Z" fill="#3EDBF0"/>
<path d="M47.3517 21.5625V14.375H27.0581V21.5625H47.3517Z" fill="#3EDBF0"/>
<path d="M60.8809 100.625V107.812H67.6454V100.625H60.8809Z" fill="#3EDBF0"/>
<path d="M108.233 107.812H128.526V100.625H108.233V107.812Z" fill="#3EDBF0"/>
<path d="M27.0582 57.5H6.76453V64.6875H27.0582V57.5Z" fill="#3EDBF0"/>
<path d="M67.6454 71.875V64.6875H47.3517V71.875H27.0581V79.0625H47.3517V86.25H54.1163V71.875H67.6454Z" fill="#3EDBF0"/>
<path d="M47.3517 50.3125H27.0581V57.5H47.3517V50.3125Z" fill="#3EDBF0"/>
<path d="M6.76453 28.75V35.9375H27.0582V28.75H6.76453Z" fill="#3EDBF0"/>
<path d="M27.0581 35.9375V43.125H47.3517V35.9375H27.0581Z" fill="#3EDBF0"/>
<path d="M142.055 28.75H128.526V35.9375H142.055V93.4375H128.526V100.625H148.82C148.82 76.6667 148.82 52.7083 148.82 28.75H142.055Z" fill="#3EDBF0"/>
</svg>
